<mxfile host="app.diagrams.net" modified="2022-05-06T15:36:48.701Z" agent="5.0 (Windows NT 10.0; Win64; x64) AppleWebKit/537.36 (KHTML, like Gecko) Chrome/99.0.4841.0 Safari/537.36" etag="F8kMRDbao1iXJ5V9kv0d" version="17.1.5" type="github">
  <diagram id="heCV3qz3Y4bJyMKTOupF" name="第 1 页">
    <mxGraphModel dx="1185" dy="635" grid="1" gridSize="10" guides="1" tooltips="1" connect="1" arrows="1" fold="1" page="1" pageScale="1" pageWidth="980" pageHeight="1390" math="0" shadow="0">
      <root>
        <mxCell id="0" />
        <mxCell id="1" parent="0" />
        <mxCell id="TB-2W_vpOtmr-8pcFfAw-1" value="" style="rounded=1;whiteSpace=wrap;html=1;" vertex="1" parent="1">
          <mxGeometry x="40" y="80" width="310" height="280" as="geometry" />
        </mxCell>
        <mxCell id="TB-2W_vpOtmr-8pcFfAw-2" value="" style="rounded=1;whiteSpace=wrap;html=1;" vertex="1" parent="1">
          <mxGeometry x="60" y="100" width="100" height="60" as="geometry" />
        </mxCell>
        <mxCell id="TB-2W_vpOtmr-8pcFfAw-3" value="" style="rounded=1;whiteSpace=wrap;html=1;" vertex="1" parent="1">
          <mxGeometry x="230" y="100" width="100" height="60" as="geometry" />
        </mxCell>
        <mxCell id="TB-2W_vpOtmr-8pcFfAw-4" value="" style="rounded=0;whiteSpace=wrap;html=1;" vertex="1" parent="1">
          <mxGeometry x="75" y="150" width="70" height="20" as="geometry" />
        </mxCell>
        <mxCell id="TB-2W_vpOtmr-8pcFfAw-5" value="" style="rounded=0;whiteSpace=wrap;html=1;" vertex="1" parent="1">
          <mxGeometry x="245" y="150" width="70" height="20" as="geometry" />
        </mxCell>
        <mxCell id="TB-2W_vpOtmr-8pcFfAw-6" value="" style="rounded=1;whiteSpace=wrap;html=1;" vertex="1" parent="1">
          <mxGeometry x="60" y="230" width="270" height="30" as="geometry" />
        </mxCell>
        <mxCell id="TB-2W_vpOtmr-8pcFfAw-7" value="" style="rounded=1;whiteSpace=wrap;html=1;" vertex="1" parent="1">
          <mxGeometry x="60" y="300" width="270" height="30" as="geometry" />
        </mxCell>
        <mxCell id="TB-2W_vpOtmr-8pcFfAw-8" value="" style="rounded=1;whiteSpace=wrap;html=1;" vertex="1" parent="1">
          <mxGeometry x="152.5" y="350" width="85" height="20" as="geometry" />
        </mxCell>
        <mxCell id="TB-2W_vpOtmr-8pcFfAw-9" value="" style="rounded=1;whiteSpace=wrap;html=1;" vertex="1" parent="1">
          <mxGeometry x="610" y="80" width="310" height="280" as="geometry" />
        </mxCell>
        <mxCell id="TB-2W_vpOtmr-8pcFfAw-10" value="" style="rounded=1;whiteSpace=wrap;html=1;" vertex="1" parent="1">
          <mxGeometry x="630" y="100" width="100" height="60" as="geometry" />
        </mxCell>
        <mxCell id="TB-2W_vpOtmr-8pcFfAw-11" value="" style="rounded=1;whiteSpace=wrap;html=1;" vertex="1" parent="1">
          <mxGeometry x="800" y="100" width="100" height="60" as="geometry" />
        </mxCell>
        <mxCell id="TB-2W_vpOtmr-8pcFfAw-12" value="" style="rounded=0;whiteSpace=wrap;html=1;" vertex="1" parent="1">
          <mxGeometry x="645" y="150" width="70" height="20" as="geometry" />
        </mxCell>
        <mxCell id="TB-2W_vpOtmr-8pcFfAw-13" value="" style="rounded=0;whiteSpace=wrap;html=1;" vertex="1" parent="1">
          <mxGeometry x="815" y="150" width="70" height="20" as="geometry" />
        </mxCell>
        <mxCell id="TB-2W_vpOtmr-8pcFfAw-14" value="" style="rounded=1;whiteSpace=wrap;html=1;" vertex="1" parent="1">
          <mxGeometry x="630" y="230" width="270" height="30" as="geometry" />
        </mxCell>
        <mxCell id="TB-2W_vpOtmr-8pcFfAw-15" value="" style="rounded=1;whiteSpace=wrap;html=1;" vertex="1" parent="1">
          <mxGeometry x="630" y="300" width="270" height="30" as="geometry" />
        </mxCell>
        <mxCell id="TB-2W_vpOtmr-8pcFfAw-16" value="" style="rounded=1;whiteSpace=wrap;html=1;" vertex="1" parent="1">
          <mxGeometry x="722.5" y="350" width="85" height="20" as="geometry" />
        </mxCell>
        <mxCell id="TB-2W_vpOtmr-8pcFfAw-17" value="" style="ellipse;shape=cloud;whiteSpace=wrap;html=1;" vertex="1" parent="1">
          <mxGeometry x="330" y="460" width="320" height="110" as="geometry" />
        </mxCell>
      </root>
    </mxGraphModel>
  </diagram>
</mxfile>
